<svg version="1.1" id="Layer_1" xmlns="http://www.w3.org/2000/svg" x="0" y="0" viewBox="0 0 251.2 148" xml:space="preserve"><style>.st0{fill:#13324c}</style><path class="st0" d="M15.7 145.9h-13V97.3h13v48.6zM68.3 136c-5.7 7.6-12.9 10.9-22 10.9-15 0-26-11.2-26-25.2 0-14.1 11.3-25.3 26.1-25.3 8.4 0 15.9 3.9 20.4 9.7l-9.2 8.1c-2.6-3.4-6.5-5.8-11.2-5.8-7.5 0-13.1 5.9-13.1 13.3 0 7.6 5.5 13.2 13.4 13.2 5.3 0 9.5-3.2 11.6-6.4l10 7.5zM94.2 96.3c14.7 0 25.8 11.3 25.8 25.3s-11.1 25.2-25.8 25.2c-14.7 0-25.8-11.2-25.8-25.2s11-25.3 25.8-25.3zm0 38.6c7.6 0 12.8-5.9 12.8-13.2s-5.2-13.3-12.8-13.3-12.8 6-12.8 13.3 5.2 13.2 12.8 13.2zM192.6 145.9h-13V97.3h13v48.6zM223 119.1l26.8 26.8h-17.5l-20.5-21v21h-13V74.8h13V113l16.7-15.7h18.3L223 119.1zM173 119.8c0-13.2-10.5-23.5-24-23.5s-24 10.3-24 23.5v26.1h13v-26.1c0-6.5 4.7-11.4 11-11.4s11 4.9 11 11.4v26.1h13v-26.1z"/><path d="M186.1 73.5c-2.3 0-4.4.9-5.9 2.4l-35.8-30.4c.6-.9.9-2 .9-3.2 0-3.4-2.8-6.2-6.2-6.2h-.1L135.4 16c3.1-1 5.4-4 5.4-7.4 0-4.3-3.5-7.9-7.9-7.9-4.3 0-7.9 3.5-7.9 7.9s3.5 7.9 7.9 7.9h.5l3.7 20.1c-2.4.9-4.1 3.1-4.1 5.8 0 .3 0 .6.1.8l-116 35.5c-1.3-3-4.3-5.2-7.8-5.2C4.6 73.5.8 77.3.8 82s3.8 8.5 8.5 8.5 8.5-3.8 8.5-8.5c0-.5-.1-1-.1-1.5l116-35.5c.4.7.9 1.4 1.5 1.9l-17 27.2c-.6-.2-1.2-.4-1.9-.4-2.9 0-5.3 2.4-5.3 5.3s2.4 5.3 5.3 5.3 5.3-2.4 5.3-5.3c0-1.5-.7-2.9-1.7-3.9l17-27.2c.7.3 1.5.5 2.4.5 1.5 0 2.9-.6 4-1.5L179 77.4c-.9 1.3-1.4 2.9-1.4 4.6 0 4.7 3.8 8.5 8.5 8.5s8.5-3.8 8.5-8.5-3.7-8.5-8.5-8.5z" fill="#00e1be"/></svg>